# xmcd
#
# Track frame offsets:
#	150
#	20742
#	37470
#	55831
#	71355
#	87475
#	108067
#	124795
#	143156
#	158680
#	186200
#
# Disc length: 2490 seconds
#
# Revision: 0
# Processed by: cddbd v1.5.2PL0 Copyright (c) Steve Scherf et al.
# Submitted via: dBpowerAMP V4.0
#
DISCID=9709b80b
DTITLE=Various Artist - Sing Pop Summer 2002 v.1
DYEAR=2002
DGENRE=Country
TTITLE0=A New Day Has Come
TTITLE1=All You Wanted
TTITLE2=A Thousand Miles
TTITLE3=Soak Up The Sun
TTITLE4=Wrong Impression
TTITLE5=A New Day Has Come w/vocal
TTITLE6=All You Wanted w/vocal
TTITLE7=A Thousand Miles w/vocal
TTITLE8=Soak Up The Sun w/vocal
TTITLE9=Wrong Impression w/vocal
TTITLE10=DATA
EXTD=
EXTT0=
EXTT1=
EXTT2=
EXTT3=
EXTT4=
EXTT5=
EXTT6=
EXTT7=
EXTT8=
EXTT9=
EXTT10=
PLAYORDER=
